<svg version="1.1" id="Layer_1" xmlns="http://www.w3.org/2000/svg" xmlns:xlink="http://www.w3.org/1999/xlink" x="0px" y="0px"
	 width="27px" height="33px" viewBox="-5.5 0 69 83" enable-background="new -5.5 0 69 83" xml:space="preserve">
<g id="logo">

	<defs>
		<linearGradient id="outline_mask" gradientUnits="userSpaceOnUse"
		                    x1="0%" y1="0%" x2="0%" y2="100%">
		      <stop offset="0%" stop-color="rgb(0,114,164)" stop-opacity="1" />
		      <stop offset="100%" stop-color="rgb(0,75,108)" stop-opacity="1" />
    		</linearGradient>
	</defs>
	
	<path id="swoosh" fill="#ffffff" d="m46.818382,32.514194l-0.066528,-8.290318c6.592056,3.254635 9.256371,7.410389 11.573326,10.71133c2.316956,3.301041 3.421448,10.416508 3.17429,14.385761c-0.247158,3.969254 -1.322796,8.634087 -2.841877,11.785709c-1.519188,3.15173 -3.363831,5.848316 -6.436695,8.648212c-3.072971,2.799995 -8.201099,8.488403 -20.752827,8.6492c-12.55183,0.160706 -17.910541,-5.805847 -19.674944,-7.080246c-1.764404,-1.274437 -3.607684,-3.32695 -4.223157,-4.374344c-0.615484,-1.04731 1.578405,1.594337 4.910803,3.809731c3.332412,2.215378 4.756625,2.847771 7.572812,3.647247c2.816086,0.7994 7.025684,1.254227 11.415405,0.819099c4.389721,-0.435081 7.088318,-1.618675 11.49728,-4.202148c4.408962,-2.583466 10.904202,-10.581726 11.531872,-17.261013c0.627674,-6.679188 -0.80022,-11.865078 -2.269367,-14.556175c-1.46904,-2.691109 -3.614571,-5.79681 -5.410393,-6.692047z"/>
  <path fill="url(#outline_mask)" d="m61.594002,76.168999l-0.391003,-0.022995c-1.256001,-0.074005 -1.256001,-0.074005 -1.523998,-0.305c-0.317001,-0.27401 -1.206001,-1.28701 -2.657001,-4.744003l-13.674,-35.769001l-0.626999,-1.645l-1.695,0c0.974998,-0.364998 1.918999,-0.678997 2.618999,-0.885998l2.452999,-0.725002l-0.014,-7.041998c0.549999,-0.205 1.133999,-0.434 1.675999,-0.674l1.084003,-0.473001c8.665997,-3.768 8.976997,-3.998999 9.634998,-5.320999c1.036999,-2.079 -0.056,-4.483 -3.256001,-7.159c-1.271999,-1.058 -3.346001,-2.271 -6.521,-3.823c-1.864998,-0.903 -11.054001,-4.808 -17.817999,-6.41c-3.411001,-0.807 -6.226,-0.976 -7.988001,-0.976c-4.763,0 -6.079,1.055 -6.791,2.196l-0.988,1.674l0.767,1.67c0.604001,1.319 1.616,1.855 3.103,2.205c-2.713999,0.241 -5.471999,0.855 -8.231,1.884c-3.160999,1.185 -5.953,3.871 -6.26,4.173l-0.904,0.891l-0.106,1.268001c-0.012,0.136999 -0.107,1.386 -0.005,2.979c0.053,0.865 0.284,2.729 0.478,4.236c-1.648,1.752998 -2.56,3.987 -2.492,6.139999c0.05,1.608 0.557,2.999998 1.389,4.043001c-0.107,0.518997 -0.21,1.056999 -0.311,1.625999c-0.087,0.482998 -0.176,0.982998 -0.275,1.475998c-0.167,0.84 -0.457,2.072002 -0.756,3.352001c-0.691,2.951 -1.116,4.820999 -1.198,5.866001l-0.043,0.555c-0.129,1.591999 -0.322,3.990997 -0.259,5.886997c0.07,2.002003 0.58,4.857002 1.811,6.868999c0.021,0.033001 2.055,3.337002 3.873,4.253002c0.546,0.272999 1.116,0.409 1.696,0.409l1.133,-0.031002c0.523999,0.227001 1.079,0.34399 1.639,0.34399c1.521,0 2.875,-0.88699 3.447,-2.24699c0.252,-0.595997 0.343,-1.146999 0.257,-1.820999c0.466001,-0.335999 0.854,-0.780998 1.128,-1.32c0.348,-0.696999 0.703,-1.408001 -0.109,-3.807999c0.022,-0.032001 0.042,-0.060001 0.063,-0.094009c0.526,-0.807991 0.971001,-2.168991 0.118,-4.105991c-0.323999,-0.743999 -1.424999,-3.729 -1.821,-5.251999c-0.285,-1.104 -0.78,-4.444 -1.29,-8.727001c-0.127999,-1.068012 -0.273,-1.890999 -0.427999,-2.575012c0.38,-0.306988 0.715,-0.667 1.005,-1.070988l0.193,0.016998c5.669001,0.521 7.625,2.011002 8.92,2.997002l0.360001,0.273998c0.646,0.48 3.011,2.934002 4.816,4.925003l3.052999,3.35899l2.384001,-3.863991c0.021,-0.033001 1.91,-3.046001 4.333,-4.936001l-15.956001,34.71999c-1.412001,3.347 -2.368999,4.729004 -2.891001,5.304001c-0.355,0.099998 -1.181,0.234001 -2.386999,0.234001l-2.56,0l0,6.825996l20.478999,0l0,-6.647987l-2.376999,-0.171013c-0.747999,-0.054001 -1.500999,-0.07 -2.233999,-0.081001c-0.468,-0.009995 -1.092001,-0.022995 -1.563,-0.048996c0.091999,-0.417999 0.309,-1.150002 0.816999,-2.330002l2.742001,-6.080002l13.014999,0l2.098,5.553001c0.655998,1.574005 0.899002,2.480003 0.990002,2.953003c-0.117001,0.001999 -0.260002,0.003998 -0.434002,0.003998l-0.392998,-0.001999l-0.447002,-0.001999c-0.405998,0 -0.826,0.004997 -1.245998,0.030998l-2.434002,0.116997l0,6.705002l22.186001,0l0,-6.672997l-2.405998,-0.152l0,0.000008zm-27.587002,-15.363998l3.278,-8.263l3.307999,8.263l-6.585999,0z" id="svg_1"/>
  <g fill="#ffffff" id="svg_2">
   <path d="m18.771999,4.221c0.319,-0.51 5.230001,-0.766 11.326,0.676c6.403,1.516 12.529999,3.599 14.271999,4.444c2.424,1.181001 3.413002,1.707001 6.826,3.413c1.374001,0.686 5.434002,3.101 5.118999,3.414c-1.705997,1.707001 -3.479,2.691 -5.118999,3.413c-1.637001,0.720001 -8.533001,3.413 -8.533001,3.413l0.011002,6.942001c0,0 -5.124001,1.500999 -7.599998,3.233997c-3.278002,2.293003 -6.063002,6.890003 -6.063002,6.890003s-3.772999,-5.825001 -5.119999,-6.827c-1.526001,-1.136002 -4.804001,-2.758001 -11.946001,-3.413002c0,0 4.415001,-1.493 7.948999,-0.534c6.401001,1.744001 9.116001,5.653999 9.116001,5.653999s1.167,-1.923 3.413,-3.412998c3.889999,-2.577 6.827,-3.413 6.827,-3.413l0,-3.414c0,0 -6.766998,3.174 -10.24,5.119999c-0.348,0.195 -16.738,-11.226 -17.065001,-11.945999c0.592,-0.328001 5.662001,2.320999 8.533001,3.413c2.731998,1.039 8.532999,3.413 8.532999,3.413c3.120001,-1.637001 9.358999,-3.973001 11.946001,-5.120001c3.844997,-1.708 6.826,-3.413 6.826,-3.413c-1.637001,-1.637 -2.794003,-2.122 -5.120003,-3.414c-2.892998,-1.607 -8.151997,-3.814 -11.945999,-5.12c-5.460999,-1.88 -12.300999,-2.838 -11.863998,-3.536" id="svg_3"/>
   <path d="m31.186001,13.165c0,0.962 -0.654001,1.66 -2.577002,1.66s-2.577,-1.092 -2.577,-1.092s-5.865999,0.334001 -8.966,0.727c-3.101,0.392 -3.413,0 -6.827,1.707l-1.707001,1.707001l0.072001,6.91l-0.071,-0.084l0,0c0,0 -1.621,-3.722 -1.707,-5.120001c-0.089,-1.398001 0,-3.413 0,-3.413s2.544,-2.451 5.12,-3.414c2.577,-0.96 5.3,-1.619 8.533,-1.707001c3.233999,-0.087 5.202999,0.589001 5.202999,0.589001s0.875,-0.437 2.666,-0.35c1.792,0.088 2.838001,0.964 2.838001,1.88" id="svg_4"/>
   <path d="m8.736,30.047001c0.804,-0.218 1.582,-1.140001 1.659,-1.855001c0.115,-1.048 -0.131001,-1.813999 -0.807,-2.293999c-0.406,-0.288 -1.921,-0.785 -2.839,0.175999c-0.917,0.961 -1.637,2.338001 -1.592,3.734001c0.042,1.393999 0.582,2.311998 1.413,2.574999c0.832,0.263 2.026,0.254002 2.977,-0.324001c0.896,-0.545998 1.609,-2.858997 0.8,-3.032999c-0.451,-0.157 -0.667,1.679001 -1.739,1.657001c-0.611,-0.012001 -1.331,-0.132 -1.703,-0.787001c-0.282,-0.493 0.042,-1.353001 0.372,-1.768c0.345,-0.437 0.872,-0.481001 1.092,-0.372c0.415,0.208 0.589,0.416 0.174,0.657c-0.309,0.177999 -1.391,-0.399 -1.529,0.743c-0.126,1.01 1.239,1.021999 1.722,0.891001" id="svg_5"/>
   <path d="m7.271,32.68c-0.643,0.243999 -0.918,2.751999 -1.377,5.046001c-0.458,2.292999 -1.792,7.431 -1.899,8.813s-0.36,4.125999 -0.295,6.059998c0.067,1.933002 0.591,4.028999 1.311,5.209c0.722,1.18 2.031,2.750999 2.49,2.981003s0.36,-0.360001 0,-1.212002c-0.358,-0.852001 -1.403,-3.178001 -1.75,-5.239998c-0.346,-2.063004 0,-4.161003 0,-4.161003s-0.051,3.899002 0.898,5.93s2.717999,4.324001 3.145,4.734001c0.427,0.407001 0.854,0.375 0.951,0.146c0.097,-0.23 -0.623,-1.965 -1.243999,-3.341999c-0.623,-1.377003 -1.606,-3.309002 -1.836,-4.227001c-0.229,-0.919998 -0.457,-3.734001 -0.263,-4.359001c0.23,2.031002 0.493,3.506001 1.476,5.079002c0.983,1.575001 1.736,2.455997 2.226999,3.014c0.493,0.559998 0.983001,0.756001 1.115001,0.493s-1.309,-3.701 -1.834001,-4.783001c-0.524,-1.084 -1.181,-3.014 -1.311,-3.734001c-0.131,-0.722 -0.033999,-0.950001 -0.033999,-0.950001s0.787,2.751003 1.509,3.701c0.717999,0.950001 1.177999,1.440002 1.505,1.571003c0.329,0.132 0.524,-0.098 0.164,-0.918003c-0.358,-0.815998 -1.539,-3.995998 -1.999,-5.765999c-0.459001,-1.77 -1.082001,-6.716999 -1.375,-9.173c-0.295,-2.455997 -0.66,-3.341 -0.919,-4.028999c-0.26,-0.687 -0.451,-0.961998 -0.655,-0.882999" id="svg_6"/>
  </g>
  <path fill="#ffffff" d="m54.667,72.266998l-13.709,-35.841l-1.706001,0l-16.289999,35.453999c-1.330999,3.162003 -2.544001,5.253006 -3.643999,6.284996c-0.534,0.516006 -2.323,0.742004 -3.959001,0.742004l0,1.707001l15.359,0l0,-1.707001c-2.103001,-0.148994 -4.657,0.037003 -5.291,-0.465004c-0.632999,-0.502007 -0.952,-1.090996 -0.952,-1.752991c0,-0.838005 0.365,-2.104004 1.095999,-3.804016l3.440001,-7.630989l16.212999,0l2.873001,7.013c0.856998,2.039001 1.286999,3.532005 1.286999,4.478989c0,0.707001 -0.306999,1.311012 -0.916,1.805c-0.376999,0.300011 -1.170998,0.332001 -2.132999,0.332001c-0.267998,0 -0.550999,-0.00399 -0.84,-0.00399c-0.370998,0 -0.747997,0.007996 -1.119999,0.027l0,1.707001l17.064999,0l0,-1.707001c-1.782997,-0.108009 -2.437,-0.083 -3.437,-0.953011c-1,-0.863991 -2.112,-2.763 -3.335999,-5.685989zm-24.802,-8.717999l7.679998,-17.064999l6.826,17.064999l-14.505999,0z" id="svg_7"/>
 </g>
</svg>